<svg width="1499" height="324" viewBox="0 0 1499 324" fill="none" xmlns="http://www.w3.org/2000/svg">
<path d="M480.828 140.14C479.991 137.23 478.815 134.66 477.3 132.428C475.786 130.156 473.933 128.243 471.741 126.689C469.588 125.094 467.117 123.879 464.327 123.042C461.577 122.205 458.528 121.786 455.18 121.786C448.923 121.786 443.423 123.341 438.68 126.449C433.977 129.558 430.31 134.082 427.68 140.02C425.05 145.919 423.734 153.133 423.734 161.662C423.734 170.191 425.03 177.445 427.62 183.423C430.211 189.402 433.878 193.965 438.62 197.114C443.363 200.222 448.963 201.777 455.42 201.777C461.278 201.777 466.28 200.741 470.425 198.668C474.61 196.556 477.799 193.586 479.991 189.76C482.223 185.934 483.339 181.411 483.339 176.189L488.6 176.967H457.034V157.477H508.268V172.901C508.268 183.662 505.997 192.909 501.453 200.641C496.909 208.333 490.652 214.272 482.681 218.456C474.71 222.601 465.583 224.674 455.3 224.674C443.822 224.674 433.738 222.143 425.05 217.081C416.361 211.98 409.585 204.746 404.723 195.38C399.901 185.974 397.489 174.814 397.489 161.901C397.489 151.977 398.924 143.129 401.794 135.357C404.703 127.545 408.768 120.929 413.99 115.509C419.211 110.089 425.289 105.964 432.224 103.134C439.158 100.304 446.671 98.8892 454.762 98.8892C461.697 98.8892 468.154 99.9055 474.132 101.938C480.11 103.931 485.411 106.761 490.034 110.427C494.697 114.094 498.504 118.458 501.453 123.52C504.402 128.542 506.296 134.082 507.132 140.14H480.828ZM527.235 223V131.172H551.925V147.194H552.882C554.556 141.495 557.366 137.191 561.311 134.281C565.257 131.332 569.801 129.857 574.942 129.857C576.217 129.857 577.592 129.937 579.067 130.096C580.542 130.256 581.837 130.475 582.953 130.754V153.352C581.757 152.993 580.103 152.675 577.991 152.396C575.879 152.117 573.946 151.977 572.192 151.977C568.446 151.977 565.098 152.794 562.148 154.428C559.239 156.022 556.927 158.254 555.213 161.124C553.54 163.994 552.703 167.302 552.703 171.048V223H527.235ZM633.694 224.794C624.249 224.794 616.118 222.88 609.303 219.054C602.527 215.188 597.306 209.728 593.639 202.674C589.973 195.579 588.139 187.19 588.139 177.505C588.139 168.059 589.973 159.769 593.639 152.635C597.306 145.5 602.467 139.941 609.123 135.955C615.819 131.969 623.671 129.977 632.678 129.977C638.736 129.977 644.376 130.953 649.597 132.906C654.858 134.819 659.441 137.709 663.347 141.575C667.293 145.441 670.362 150.303 672.554 156.162C674.746 161.981 675.842 168.796 675.842 176.608V183.603H598.303V167.82H651.869C651.869 164.153 651.072 160.905 649.477 158.075C647.883 155.245 645.671 153.033 642.841 151.439C640.051 149.805 636.803 148.988 633.097 148.988C629.231 148.988 625.803 149.885 622.814 151.678C619.864 153.432 617.553 155.803 615.879 158.792C614.205 161.742 613.348 165.03 613.308 168.657V183.662C613.308 188.206 614.145 192.132 615.819 195.44C617.533 198.748 619.944 201.299 623.053 203.092C626.162 204.886 629.848 205.782 634.113 205.782C636.943 205.782 639.533 205.384 641.885 204.587C644.236 203.79 646.249 202.594 647.923 201C649.597 199.405 650.872 197.452 651.749 195.141L675.304 196.695C674.108 202.355 671.657 207.297 667.95 211.522C664.284 215.706 659.541 218.975 653.722 221.326C647.943 223.638 641.267 224.794 633.694 224.794ZM733.832 259.348C725.582 259.348 718.507 258.213 712.609 255.941C706.75 253.709 702.087 250.66 698.619 246.794C695.152 242.928 692.9 238.584 691.864 233.761L715.419 230.593C716.136 232.426 717.272 234.14 718.826 235.734C720.381 237.328 722.433 238.604 724.984 239.56C727.575 240.556 730.723 241.055 734.43 241.055C739.97 241.055 744.533 239.7 748.12 236.989C751.747 234.319 753.561 229.835 753.561 223.538V206.739H752.485C751.369 209.29 749.695 211.701 747.463 213.973C745.231 216.244 742.361 218.098 738.854 219.533C735.347 220.967 731.162 221.685 726.299 221.685C719.404 221.685 713.127 220.091 707.467 216.902C701.848 213.674 697.364 208.752 694.016 202.136C690.708 195.48 689.054 187.07 689.054 176.907C689.054 166.504 690.748 157.816 694.136 150.841C697.523 143.866 702.027 138.645 707.647 135.178C713.306 131.71 719.504 129.977 726.239 129.977C731.381 129.977 735.685 130.853 739.153 132.607C742.62 134.321 745.41 136.473 747.522 139.064C749.675 141.615 751.329 144.125 752.485 146.597H753.441V131.172H778.73V223.897C778.73 231.708 776.816 238.245 772.99 243.506C769.164 248.767 763.863 252.712 757.088 255.343C750.352 258.013 742.6 259.348 733.832 259.348ZM734.37 202.554C738.475 202.554 741.943 201.538 744.772 199.505C747.642 197.433 749.834 194.483 751.349 190.657C752.903 186.791 753.68 182.168 753.68 176.787C753.68 171.407 752.923 166.744 751.408 162.798C749.894 158.812 747.702 155.723 744.832 153.531C741.963 151.339 738.475 150.243 734.37 150.243C730.185 150.243 726.658 151.379 723.788 153.651C720.919 155.883 718.747 158.992 717.272 162.977C715.797 166.963 715.06 171.566 715.06 176.787C715.06 182.088 715.797 186.671 717.272 190.537C718.786 194.364 720.959 197.333 723.788 199.445C726.658 201.518 730.185 202.554 734.37 202.554ZM786.262 121.906V100.563H886.818V121.906H849.334V223H823.747V121.906H786.262ZM919.415 131.172L936.274 163.276L953.552 131.172H979.677L953.074 177.086L980.395 223H954.389L936.274 191.255L918.459 223H892.154L919.415 177.086L893.111 131.172H919.415ZM995.281 223V100.563H1043.59C1052.83 100.563 1060.72 102.217 1067.26 105.525C1073.84 108.793 1078.84 113.437 1082.27 119.455C1085.73 125.433 1087.47 132.468 1087.47 140.558C1087.47 148.689 1085.71 155.684 1082.21 161.542C1078.7 167.361 1073.62 171.825 1066.96 174.934C1060.35 178.043 1052.33 179.597 1042.93 179.597H1010.59V158.792H1038.74C1043.69 158.792 1047.79 158.115 1051.06 156.76C1054.33 155.405 1056.76 153.372 1058.35 150.662C1059.99 147.952 1060.8 144.584 1060.8 140.558C1060.8 136.493 1059.99 133.065 1058.35 130.276C1056.76 127.486 1054.31 125.373 1051 123.939C1047.73 122.464 1043.61 121.727 1038.62 121.727H1021.17V223H995.281ZM1061.4 167.282L1091.83 223H1063.25L1033.48 167.282H1061.4ZM1145.65 224.794C1136.21 224.794 1128.08 222.88 1121.26 219.054C1114.48 215.188 1109.26 209.728 1105.6 202.674C1101.93 195.579 1100.1 187.19 1100.1 177.505C1100.1 168.059 1101.93 159.769 1105.6 152.635C1109.26 145.5 1114.42 139.941 1121.08 135.955C1127.78 131.969 1135.63 129.977 1144.64 129.977C1150.69 129.977 1156.33 130.953 1161.55 132.906C1166.82 134.819 1171.4 137.709 1175.3 141.575C1179.25 145.441 1182.32 150.303 1184.51 156.162C1186.7 161.981 1187.8 168.796 1187.8 176.608V183.603H1110.26V167.82H1163.83C1163.83 164.153 1163.03 160.905 1161.43 158.075C1159.84 155.245 1157.63 153.033 1154.8 151.439C1152.01 149.805 1148.76 148.988 1145.05 148.988C1141.19 148.988 1137.76 149.885 1134.77 151.678C1131.82 153.432 1129.51 155.803 1127.84 158.792C1126.16 161.742 1125.31 165.03 1125.27 168.657V183.662C1125.27 188.206 1126.1 192.132 1127.78 195.44C1129.49 198.748 1131.9 201.299 1135.01 203.092C1138.12 204.886 1141.81 205.782 1146.07 205.782C1148.9 205.782 1151.49 205.384 1153.84 204.587C1156.19 203.79 1158.21 202.594 1159.88 201C1161.55 199.405 1162.83 197.452 1163.71 195.141L1187.26 196.695C1186.07 202.355 1183.61 207.297 1179.91 211.522C1176.24 215.706 1171.5 218.975 1165.68 221.326C1159.9 223.638 1153.22 224.794 1145.65 224.794ZM1230.6 224.734C1224.75 224.734 1219.52 223.717 1214.94 221.685C1210.36 219.612 1206.73 216.563 1204.06 212.538C1201.43 208.473 1200.11 203.411 1200.11 197.353C1200.11 192.251 1201.05 187.967 1202.92 184.499C1204.8 181.032 1207.35 178.242 1210.58 176.13C1213.8 174.017 1217.47 172.423 1221.58 171.347C1225.72 170.271 1230.07 169.514 1234.61 169.075C1239.95 168.517 1244.25 167.999 1247.52 167.521C1250.79 167.003 1253.16 166.245 1254.64 165.249C1256.11 164.253 1256.85 162.778 1256.85 160.825V160.466C1256.85 156.68 1255.65 153.751 1253.26 151.678C1250.91 149.606 1247.56 148.569 1243.22 148.569C1238.64 148.569 1234.99 149.586 1232.28 151.618C1229.57 153.611 1227.77 156.122 1226.9 159.151L1203.34 157.238C1204.54 151.658 1206.89 146.836 1210.4 142.77C1213.9 138.665 1218.43 135.517 1223.97 133.325C1229.55 131.093 1236 129.977 1243.34 129.977C1248.44 129.977 1253.32 130.574 1257.99 131.77C1262.69 132.966 1266.85 134.819 1270.48 137.33C1274.15 139.841 1277.04 143.069 1279.15 147.015C1281.26 150.921 1282.32 155.604 1282.32 161.064V223H1258.16V210.266H1257.45C1255.97 213.136 1254 215.667 1251.53 217.859C1249.06 220.011 1246.09 221.705 1242.62 222.94C1239.15 224.136 1235.15 224.734 1230.6 224.734ZM1237.9 207.157C1241.64 207.157 1244.95 206.42 1247.82 204.945C1250.69 203.431 1252.94 201.398 1254.58 198.847C1256.21 196.297 1257.03 193.407 1257.03 190.179V180.434C1256.23 180.952 1255.14 181.43 1253.74 181.869C1252.39 182.267 1250.85 182.646 1249.14 183.005C1247.42 183.324 1245.71 183.623 1244 183.901C1242.28 184.141 1240.73 184.36 1239.33 184.559C1236.34 184.998 1233.73 185.695 1231.5 186.652C1229.27 187.608 1227.54 188.903 1226.3 190.537C1225.06 192.132 1224.45 194.125 1224.45 196.516C1224.45 199.983 1225.7 202.634 1228.21 204.467C1230.76 206.261 1233.99 207.157 1237.9 207.157ZM1327.54 100.563V223H1302.08V100.563H1327.54ZM1396.79 131.172V150.303H1341.49V131.172H1396.79ZM1354.04 109.172H1379.51V194.782C1379.51 197.134 1379.87 198.967 1380.59 200.282C1381.3 201.558 1382.3 202.454 1383.58 202.972C1384.89 203.491 1386.41 203.75 1388.12 203.75C1389.31 203.75 1390.51 203.65 1391.71 203.451C1392.9 203.212 1393.82 203.032 1394.46 202.913L1398.46 221.864C1397.19 222.263 1395.39 222.721 1393.08 223.239C1390.77 223.797 1387.96 224.136 1384.65 224.255C1378.51 224.495 1373.13 223.678 1368.51 221.804C1363.93 219.931 1360.36 217.022 1357.81 213.076C1355.26 209.13 1354 204.148 1354.04 198.13V109.172ZM1429.1 257.435C1425.87 257.435 1422.84 257.176 1420.01 256.658C1417.22 256.18 1414.91 255.562 1413.08 254.805L1418.82 235.794C1421.81 236.71 1424.5 237.209 1426.89 237.288C1429.32 237.368 1431.41 236.81 1433.17 235.614C1434.96 234.419 1436.41 232.386 1437.53 229.516L1439.02 225.63L1406.08 131.172H1432.87L1451.88 198.608H1452.83L1472.03 131.172H1498.99L1463.3 232.924C1461.58 237.866 1459.25 242.171 1456.3 245.837C1453.39 249.544 1449.71 252.394 1445.24 254.386C1440.78 256.419 1435.4 257.435 1429.1 257.435Z" fill="black"/>
<g clip-path="url(#clip0_497_2453)">
<path d="M265.656 162.121C265.656 219.639 218.858 266.437 161.34 266.437C103.822 266.437 57.0239 219.639 57.0239 162.121C57.0239 104.602 103.822 57.8047 161.34 57.8047" stroke="black" stroke-width="22.8096" stroke-linecap="round" stroke-linejoin="round"/>
<path d="M161.34 12.1854C78.5406 12.1854 11.4043 79.3217 11.4043 162.121C11.4043 244.92 78.5406 312.056 161.34 312.056C244.138 312.056 311.275 244.92 311.275 162.121H161.34" stroke="black" stroke-width="22.8096" stroke-linecap="round" stroke-linejoin="round"/>
<path d="M220.037 162.121C220.037 194.472 193.729 220.817 161.34 220.817C128.95 220.817 102.643 194.472 102.643 162.121C102.643 129.769 128.988 103.424 161.34 103.424" stroke="black" stroke-width="22.8096" stroke-linecap="round" stroke-linejoin="round"/>
<path d="M200.8 11.6154V103.88C200.8 109.393 205.286 113.879 210.798 113.879H303.063C311.959 113.879 316.407 103.12 310.134 96.8473L217.831 4.54442C211.558 -1.72823 200.8 2.71965 200.8 11.6154Z" fill="black"/>
</g>
<defs>
<clipPath id="clip0_497_2453">
<rect width="322.68" height="322.68" fill="white" transform="translate(0 0.780762)"/>
</clipPath>
</defs>
</svg>
