<svg xmlns="http://www.w3.org/2000/svg" width="48" height="46" viewBox="0 0 48 46" fill="none">
  <path d="M 48 24.246 L 24.024 0 L 0 24.246 L 7.327 24.246 L 7.327 46 L 40.688 46 L 40.688 24.246 L 48 24.246 Z" fill="#D92228"></path>
  <g transform="translate(15.035 16.927)">
    <path d="M 18.136 0.965 C 17.503 0.343 16.491 0 15.272 0 C 13.262 0 11.996 0.825 11.126 1.542 L 11.11 1.557 C 10.239 2.383 9.242 3.504 8.419 5.684 C 8.435 5.077 8.451 4.236 8.467 3.457 C 8.499 2.242 8.514 1.199 8.514 1.074 C 8.514 0.81 8.324 0.529 7.913 0.529 L 0.111 0.529 L 0.111 1.183 L 0.317 1.199 C 0.95 1.246 1.551 1.308 2.105 1.697 C 2.595 2.024 2.896 2.476 2.991 3.052 C 3.149 3.722 3.149 5.684 3.149 6.525 L 3.149 17.659 C 3.149 18.796 3.118 20.353 2.944 21.396 C 2.627 22.408 2.295 22.72 1.614 23.062 C 1.234 23.234 0.76 23.358 0.222 23.42 L 0 23.436 L 0 24.09 L 11.648 24.09 L 11.648 23.436 L 11.442 23.42 C 10.967 23.374 10.619 23.311 10.144 23.109 C 9.796 22.984 9.496 22.673 9.179 22.097 C 8.72 21.131 8.435 20.041 8.435 17.394 L 8.435 12.754 C 8.435 11.352 8.499 9.997 8.546 9.406 C 9.068 5.699 11.11 2.725 12.439 2.725 C 12.946 2.725 13.278 3.27 13.642 4.142 C 14.069 5.139 14.671 6.198 16.396 6.198 C 18.105 6.198 19.007 4.781 19.007 3.364 C 19.023 2.398 18.738 1.619 18.136 0.965 Z" fill="#FFFFFF" fill-rule="nonzero"></path>
  </g>
</svg>