<?xml version="1.0"?>
<svg id="Layer_1" data-name="Layer 1" xmlns="http://www.w3.org/2000/svg" viewBox="0 0 643 182.4">
  <defs>
    <style>
      .cls-1 { fill: #D92228; }
      .cls-2 { fill: #1A1816; }
    </style>
  </defs>
  <path class="cls-2" d="M334.24,72.99c-13.66,0-25.79,10.36-25.79,27.44s12.01,27.44,25.79,27.44,25.79-10.48,25.79-27.56-12.01-27.33-25.79-27.33ZM342.84,122.46c-2.47,2.59-5.65,3.53-8.6,3.53s-6.24-.94-8.72-3.53c-3.77-4-5.65-11.42-5.65-22.03s1.88-18.26,5.77-22.03c2.36-2.47,5.65-3.53,8.6-3.53s6.12.94,8.6,3.53c3.89,3.89,5.77,11.31,5.77,22.03s-2,18.14-5.77,22.03Z"></path>
  <path class="cls-2" d="M399.13,79.94c0-2.24-.71-3.77-1.77-4.95-1.3-1.3-3.42-2-5.89-2-4,0-6.6,1.53-8.72,3.3-2.36,2.24-4.59,5.18-6.36,10.72h-.35c0-.82.24-11.54.24-12.13,0-.35-.24-.71-.83-.71h-16.49v1.06c1.41.12,2.83.24,4.12,1.18,1.06.71,1.88,1.77,2.12,3.3.35,1.53.35,5.89.35,7.77v25.09c0,3.06-.12,6.24-.47,8.36-.71,2.36-1.53,3.18-3.18,4-1.06.47-2.24.71-3.18.82v1.06h24.38v-1.06c-1.06-.12-1.88-.24-2.95-.71-.94-.35-1.65-1.18-2.36-2.47-1.06-2.24-1.65-4.71-1.65-10.6v-5.56c0-3.38.08-6.7.5-10.07,1.1-8.8,5.51-17.06,8.69-17.06,1.41,0,2.24,1.41,3.06,3.42.94,2.24,2.12,3,5.54,3s5.18-2.71,5.18-5.77Z"></path>
  <path class="cls-2" d="M432.62,124.58c-3.77,0-7.07-1.53-9.19-3.89-3.3-3.65-5.65-9.89-5.65-21.32s2.36-18.37,5.65-21.67c2-1.77,4.71-2.83,7.66-2.83,5.3,0,7.07,2,8.48,8.36.59,4,2.47,6.24,5.89,6.24,3.06,0,5.06-1.65,5.06-4.83,0-2.36-1.18-4.71-3.18-6.48-2.71-2.71-6.95-5.18-16.14-5.18-14.02,0-24.85,12.13-24.85,27.44,0,10.84,3.89,17.67,8.95,21.91,3.89,3.3,8.95,5.54,15.9,5.54,11.19,0,17.78-7.42,20.38-16.96l-1.77-.59c-1.88,6.12-6.36,14.25-17.2,14.25Z"></path>
  <path class="cls-2" d="M481.32,72.99c-13.66,0-25.79,10.36-25.79,27.44s12.01,27.44,25.79,27.44,25.79-10.48,25.79-27.56-12.01-27.33-25.79-27.33ZM489.92,122.46c-2.47,2.59-5.65,3.53-8.6,3.53s-6.24-.94-8.72-3.53c-3.77-4-5.65-11.42-5.65-22.03s1.88-18.26,5.77-22.03c2.36-2.47,5.65-3.53,8.6-3.53s6.12.94,8.6,3.53c3.89,3.89,5.77,11.31,5.77,22.03s-2,18.14-5.77,22.03Z"></path>
  <path class="cls-2" d="M588.53,120.81c-.47-1.88-.59-4.83-.59-8.01v-24.26c0-5.89-1.18-9.54-3.77-11.9-2.36-2.36-5.3-3.65-10.36-3.65-4.59,0-7.89,1.18-10.84,3.3-2.59,1.77-4.83,4.24-6.83,8.95h-.35c-.24-4-1.41-6.48-3.3-8.48-2.24-2.47-5.65-3.77-10.36-3.77-5.06,0-8.6,1.3-11.19,3.42-2.71,1.88-4.71,4.48-6.36,8.6h-.47c0-.59.24-9.54.24-10.13,0-.47-.12-.71-.71-.71h-16.49v1.06c1.41.12,2.94.35,4,1.06,1.06.59,1.65,1.65,2,3.3.35,1.65.35,4.83.35,7.89v24.62c0,3.42,0,6.48-.35,8.48-.47,2.59-1.53,3.53-3.65,4.36-.82.35-2.12.82-3.06.94v.94h24.5v-1.06c-1.88-.24-3.3-.71-4.24-1.53-.94-.71-1.53-1.77-1.88-3.3-.59-2.24-.59-5.18-.59-8.83v-10.26c0-5.42.35-9.07,1.65-12.72,2.12-6.01,5.77-11,11.31-11,3.3,0,5.54,1.18,6.95,3.65.82,1.77,1.41,4.36,1.41,7.66v22.67c0,3.65-.12,7.07-.71,9.19-.24,1.53-.94,2.59-2.24,3.3-.94.59-2.12.94-3.77,1.18v1.06h23.79v-.94c-1.53-.24-2.59-.71-3.53-1.18-1.3-.82-2-2.12-2.59-3.77-.47-1.77-.35-4.83-.35-8.36v-10.74c0-5.77.35-9.66,1.53-12.84,2.24-6.24,6.24-10.88,11.42-10.88,2.83,0,4.95,1.06,6.24,3.06,1.3,2,1.88,4.71,1.88,8.36v22.56c0,3.65,0,6.83-.47,8.83-.35,1.53-1.06,2.71-2.24,3.53-.94.71-2.12.94-3.77,1.3v1.06h24.15v-.94c-1.18-.12-2.24-.59-3.3-.94-1.77-.82-2.47-1.88-3.06-4.12Z"></path>
  <path class="cls-2" d="M300.79,123.87c-5.42,0-6.83-2.47-6.83-6.83l.24-40.28h13.19v-2.59h-13.19v-17.79h-1.53c-2.56,11-9.18,17.42-16.94,18.61v1.77l7.87-.02s-.23,37.6-.23,38.77c0,4.48.83,7.3,3.3,9.42,2.36,2,5.18,2.94,9.89,2.94,6.6,0,11.19-3.42,13.66-7.54l-.83-.82c-2.12,2.83-5.18,4.36-8.6,4.36Z"></path>
  <path class="cls-2" d="M397.84,127.75c3.22-.76,5.21-3.99,4.45-7.21-.76-3.22-3.99-5.21-7.21-4.45-3.22.76-5.21,3.99-4.45,7.21.76,3.22,3.99,5.21,7.21,4.45Z"></path>
  <path class="cls-2" d="M599.77,82.21c-.04-.43-.21-.73-.56-.88.54-.24.69-.69.69-1.12,0-.86-.65-1.33-1.66-1.33h-2.02v4.74h.82v-1.9h1.29c.47,0,.62.17.65.69l.04.48c.02.32.06.56.19.73h.84c-.15-.24-.2-.41-.22-.73l-.05-.69ZM598.31,80.98h-1.27v-1.34h1.19c.54,0,.82.22.82.67s-.28.67-.75.67Z"></path>
  <path class="cls-2" d="M597.99,76.89c-2.58,0-4.57,1.96-4.57,4.42s2,4.42,4.57,4.42,4.56-1.96,4.56-4.42-2-4.42-4.56-4.42ZM597.99,84.86c-2.07,0-3.64-1.55-3.64-3.55s1.57-3.56,3.64-3.56,3.62,1.57,3.62,3.56-1.57,3.55-3.62,3.55Z"></path>
  <path class="cls-1" d="M274.09,124.82c-1.29-.59-2.59-1.65-3.18-4.12-.24-1.77-.24-3.89-.24-6.6v-57.71c0-4.12.12-6.95.12-9.3,0-.59-.24-.82-.83-.82h-16.37v1.06c1.88.12,2.94.35,4.12,1.06.94.71,1.53,1.77,2,3.42.24,1.53.24,5.89.24,7.66v54.65c0,2.83,0,5.06-.47,7.07-.47,2-1.65,2.94-3.18,3.65-.82.47-2.12.82-3.18.94v1.06h24.26v-1.06c-1.06-.12-2.24-.47-3.3-.94Z"></path>
  <path class="cls-1" d="M157,74.99c-1.3-1.3-3.42-2-5.89-2-4,0-6.6,1.53-8.72,3.3-2.36,2.24-4.59,5.18-6.36,10.72h-.35c0-.82.24-11.54.24-12.13,0-.35-.24-.71-.83-.71h-16.49v1.06c1.41.12,2.83.24,4.12,1.18,1.06.71,1.88,1.77,2.12,3.3.35,1.53.35,5.89.35,7.77v25.09c0,3.06-.12,6.24-.47,8.36-.71,2.36-1.53,3.18-3.18,4-1.06.47-2.24.71-3.18.82v1.06h24.38v-1.06c-1.06-.12-1.88-.24-2.95-.71-.94-.35-1.65-1.18-2.36-2.47-1.06-2.24-1.65-4.71-1.65-10.6v-5.56c0-3.38.08-6.7.5-10.07,1.1-8.8,5.51-17.06,8.69-17.06,1.41,0,2.24,1.41,3.06,3.42.94,2.24,2.12,3,5.54,3s5.18-2.71,5.18-5.77c0-2.24-.71-3.77-1.77-4.95Z"></path>
  <path class="cls-1" d="M248.16,124.6c-1.06-1.18-1.3-3.42-1.3-8.6v-31.35c0-8.01-7.42-11.66-17.9-11.66-5.54,0-12.96,2.12-15.9,5.42-1.53,1.53-2.47,3.3-2.47,5.65,0,3.06,2.24,4.71,4.95,4.71,3.42,0,5.54-1.53,5.65-5.65.12-3.3.71-5.54,2.59-6.83,1.41-.94,3.3-1.53,5.42-1.53,4.95,0,7.18,2,7.18,8.13v8.01c-.24,3.65-3.77,6.83-11.42,9.07-5.65,1.88-10.13,2.59-13.9,6.12-2.47,2.36-3.42,5.54-3.42,8.72,0,8.48,6.36,13.07,14.61,13.07,7.66,0,11.9-3.89,13.78-7.77h.47c.12,3.65.94,5.3,2.59,6.48,1.06.71,2.95,1.3,5.42,1.3s4.65-.54,6.43-1.06v-1.05s-.04,0-.07,0c-1.18,0-2.12-.35-2.71-1.18ZM236.27,114.57c-.12,6.01-5.54,9.54-9.66,9.54-5.18,0-8.13-3.06-8.13-10.36,0-3.53.59-6.12,2.12-7.89,1.41-1.77,3.89-3.06,7.54-4.59,2.71-1.3,6.24-2.94,8.13-5.42v18.73Z"></path>
  <path class="cls-1" d="M202.3,110.32c-2.3,7.47-7.13,14.14-16.94,14.14-4.36,0-8.24-1.41-10.95-4.48-3.18-3.53-5.18-10.72-5.18-19.67,0-.94,0-1.59.12-2.53h34.51c.24-1.53.24-3.95.24-5.24,0-8.95-6.24-19.55-21.32-19.55-13.9,0-25.09,11.54-25.09,27.68,0,8.01,2.24,15.08,7.42,20.26,4.48,4.59,10.48,6.95,18.02,6.95,11.13,0,18.15-6.74,21.17-16.94h-.03l-1.97-.61ZM175.23,78.06c2-2,4.71-3.06,7.66-3.06,3.3,0,5.3.94,7.18,2.59,2.24,2.24,3.42,6.01,3.42,12.13,0,4.59-.71,5.54-4.24,5.54h-19.79c.71-7.77,2.83-14.61,5.77-17.2Z"></path>
  <path class="cls-1" d="M31.32,93.42h11.04v33.34h50.31v-33.34h11.03l-36.16-37.17-36.23,37.17ZM70.76,84.58h.02c1.32-1.11,3.22-2.38,6.26-2.38,1.83,0,3.36.53,4.32,1.49.89.99,1.32,2.19,1.32,3.67,0,2.15-1.35,4.34-3.93,4.34s-3.51-1.62-4.15-3.14c-.55-1.34-1.04-2.16-1.81-2.16-2.01,0-5.07,4.57-5.87,10.24-.08.92-.16,3-.16,5.14v7.11c0,4.06.41,5.72,1.11,7.2.48.88.91,1.34,1.45,1.54.71.31,1.24.39,1.96.47l.3.03v1.01h-17.57v-1l.29-.04c.82-.1,1.53-.29,2.11-.55,1.03-.51,1.54-.99,2.01-2.55.26-1.6.32-3.99.32-5.72v-17.07c0-1.28,0-4.29-.24-5.31-.14-.89-.58-1.59-1.33-2.08-.83-.61-1.74-.68-2.7-.76l-.31-.03v-1.01s11.76,0,11.76,0c.62,0,.91.43.91.83,0,.19-.03,1.8-.07,3.65-.02,1.19-.05,2.47-.07,3.4,1.25-3.34,2.74-5.07,4.06-6.32Z"></path>
</svg>